<svg width="257" height="256" viewBox="0 0 257 256" fill="none" xmlns="http://www.w3.org/2000/svg">
<circle cx="128" cy="128" r="128" fill="white"/>
<path d="M192.39 68.8485C191.237 52.6742 185.048 39.3883 173.823 28.9905C162.675 18.5928 147.951 13.3939 129.653 13.3939C117.659 13.3939 106.934 15.7045 97.4776 20.3257C88.0209 24.947 80.5632 31.3011 75.1045 39.3882C69.6458 47.3983 66.9164 56.6023 66.9164 67C66.9164 73.0076 67.9159 78.553 69.9149 83.6364C71.9138 88.7197 74.9507 93.3794 79.0255 97.6155C83.1772 101.775 88.3669 105.549 94.5944 108.937C100.899 112.249 108.28 115.215 116.737 117.833L143.492 126.152C153.718 129.309 162.559 132.852 170.017 136.78C177.475 140.708 183.625 145.137 188.469 150.066C193.39 154.919 197.042 160.348 199.425 166.356C201.808 172.287 203 178.91 203 186.227C203 198.551 199.848 209.526 193.543 219.153C187.239 228.781 178.436 236.329 167.134 241.797C155.832 247.266 142.723 250 127.808 250C113.431 250 100.86 247.497 90.0968 242.491C79.3331 237.407 70.799 230.437 64.4946 221.58C58.267 212.645 54.7688 202.402 54 190.848H61.3808C62.1496 201.015 65.3403 209.988 70.9528 217.767C76.5653 225.546 84.1767 231.631 93.7871 236.021C103.474 240.411 114.815 242.606 127.808 242.606C141.34 242.606 153.18 240.257 163.328 235.559C173.554 230.783 181.473 224.16 187.085 215.687C192.775 207.215 195.619 197.395 195.619 186.227C195.619 177.755 193.774 170.323 190.084 163.93C186.393 157.46 180.588 151.761 172.67 146.831C164.751 141.902 154.41 137.473 141.647 133.545L114.892 125.227C96.3627 119.374 82.4853 111.633 73.2593 102.006C64.1102 92.3782 59.5356 80.7096 59.5356 67C59.5356 55.3699 62.5725 44.9722 68.6463 35.8068C74.7201 26.5644 83.0235 19.286 93.5565 13.9716C104.166 8.65719 116.199 6 129.653 6C143.185 6 155.063 8.69571 165.289 14.0871C175.514 19.4785 183.625 26.911 189.622 36.3845C195.619 45.858 199.002 56.6793 199.771 68.8485H192.39Z" fill="black"/>
</svg>
